<svg xmlns="http://www.w3.org/2000/svg" viewBox="0 0 500 500">
  <defs>
    <linearGradient id="aivestorBlue" x1="0%" y1="100%" x2="100%" y2="0%">
      <stop offset="0%" stop-color="#1e3a8a" />
      <stop offset="50%" stop-color="#2563eb" />
      <stop offset="100%" stop-color="#60a5fa" />
    </linearGradient>
    <linearGradient id="aivestorChartBlue" x1="0%" y1="0%" x2="0%" y2="100%">
      <stop offset="0%" stop-color="#2563eb" stop-opacity="0.18" />
      <stop offset="100%" stop-color="#2563eb" stop-opacity="0" />
    </linearGradient>
  </defs>
  <rect width="500" height="500" rx="40" fill="#0f1115" />
  <path d="M 0 350 L 80 320 L 160 340 L 240 260 L 320 280 L 420 180 L 500 200 L 500 500 L 0 500 Z" fill="url(#aivestorChartBlue)" />
  <path d="M 0 350 L 80 320 L 160 340 L 240 260 L 320 280 L 420 180 L 500 200" fill="none" stroke="#60a5fa" stroke-width="5" stroke-linecap="round" stroke-linejoin="round" stroke-opacity="0.45" />
  <path d="M 250 120 L 130 380 L 200 380 L 280 180 Z" fill="url(#aivestorBlue)" />
  <path d="M 250 120 L 370 380 L 300 380 L 220 180 Z" fill="#2563eb" fill-opacity="0.92" />
  <circle cx="175" cy="290" r="14" fill="#ffffff" />
  <circle cx="325" cy="290" r="14" fill="#ffffff" />
  <line x1="175" y1="290" x2="325" y2="290" stroke="#ffffff" stroke-width="10" stroke-linecap="round" />
  <circle cx="250" cy="80" r="12" fill="#93c5fd" />
</svg>
